<?xml version="1.0" encoding="UTF-8" standalone="no"?>
<!-- Created with Inkscape (http://www.inkscape.org/) -->

<svg
   version="1.1"
   id="svg1"
   width="803"
   height="803"
   viewBox="0 0 803 803"
   sodipodi:docname="arrow_1.svg"
   xml:space="preserve"
   inkscape:export-filename="arrow_1.svg"
   inkscape:export-xdpi="96"
   inkscape:export-ydpi="96"
   xmlns:inkscape="http://www.inkscape.org/namespaces/inkscape"
   xmlns:sodipodi="http://sodipodi.sourceforge.net/DTD/sodipodi-0.dtd"
   xmlns="http://www.w3.org/2000/svg"
   xmlns:svg="http://www.w3.org/2000/svg"><defs
     id="defs1" /><sodipodi:namedview
     id="namedview1"
     pagecolor="#ffffff"
     bordercolor="#000000"
     borderopacity="0.44"
     inkscape:showpageshadow="2"
     inkscape:pageopacity="0.44"
     inkscape:pagecheckerboard="0"
     inkscape:deskcolor="#d1d1d1"><inkscape:page
       x="0"
       y="0"
       width="803"
       height="803"
       id="page2"
       margin="0"
       bleed="0" /></sodipodi:namedview><g
     inkscape:groupmode="layer"
     inkscape:label="Image"
     id="g1"><path
       style="display:none;fill:#ff4400;fill-opacity:1"
       d="M 190.0065,709.71096 C 65.913243,624.2452 4.8558252,472.21721 35.56217,325.15726 60.623574,205.13226 143.30485,104.51446 255.88613,57.037075 419.94281,-12.148242 609.97102,43.583537 710.04894,190.23466 c 25.08371,36.7569 40.73098,71.09286 52.42003,115.02917 6.68463,25.12582 9.53917,40.55541 11.52026,62.26993 4.82275,52.86147 -2.4196,110.24689 -20.09525,159.22498 -8.5495,23.69036 -14.20982,35.69813 -28.66706,60.814 C 710.6431,612.9087 705.0671,621.0438 688.80953,640.70375 608.27915,738.08741 480.46241,788.46645 354.74506,772.3754 296.03362,764.86069 238.06571,742.81047 190.0065,709.71096 Z m 70.5739,-4.23757 c 97.60487,44.91269 210.18109,40.58697 304.58518,-11.70362 39.2924,-21.76415 73.52722,-51.32687 102.9781,-88.92458 11.33398,-14.46922 35.88459,-56.97177 42.76532,-74.03633 C 734.77667,471.6163 741.88052,413.73362 732.87699,351.8118 730.15775,333.11018 719.73283,294.28482 713.01257,277.83095 686.78896,213.62526 647.60846,164.4801 591.12816,124.94784 577.53322,115.43234 546.5715,98.496556 531.45397,92.306569 460.56985,63.282593 388.04742,58.525757 314.96899,78.107064 252.16245,94.936004 197.67441,127.85753 153.88295,175.43474 l -1.90854,2.07354 124.28443,71.75563 124.28443,71.75566 30.49526,-52.30386 30.49532,-52.30395 20.25978,57.07002 c 66.85528,188.32502 77.32495,217.95455 77.22835,218.558 -0.10759,0.67194 -284.78434,53.05934 -286.584,52.73842 -0.58136,-0.10369 10.97086,-20.84485 29.07705,-52.20572 l 30.04167,-52.03367 -124.29116,-71.75953 -124.291123,-71.7595 -0.84631,2.6868 c -30.403774,96.52398 -15.524102,202.40789 40.301813,286.78745 22.40573,33.86573 49.20897,61.92496 82.33668,86.19512 12.28589,9.00094 41.79014,26.33128 55.8138,32.78424 z"
       id="path2" /><path
       style="display:none;fill:#ff4400;fill-opacity:1"
       d="M 236.82202,705.28348 C 180.7662,667.97639 137.89592,616.25735 111.5355,554.13688 84.986353,491.57164 78.110753,421.50089 92.430587,359.43437 c 1.930738,-8.36842 3.363596,-15.76334 3.184119,-16.43316 -0.27507,-1.02655 -17.48714,-9.06197 -51.399217,-23.99563 l -5.400894,-2.37836 2.312045,-1.43864 c 1.271623,-0.79126 5.142566,-2.97863 8.602087,-4.86081 6.454253,-3.51149 36.498375,-21.11906 57.458053,-33.67369 6.47859,-3.88061 20.75857,-12.26375 31.73329,-18.6292 10.97471,-6.36545 30.96659,-18.20582 44.4264,-26.31193 13.45981,-8.10611 25.24969,-14.98475 26.19973,-15.28586 2.03523,-0.64506 2.25851,0.51825 20.12411,104.85328 2.34184,13.67637 5.86187,33.37558 7.82229,43.77602 4.59217,24.36253 7.02384,39.75075 6.44099,40.76027 -0.58979,1.02155 -2.49568,0.29811 -26.51968,-10.06656 -10.93146,-4.71615 -23.80922,-10.07655 -28.61722,-11.91198 -4.80801,-1.83544 -8.94089,-3.45209 -9.18417,-3.59255 -1.90307,-1.09873 -4.92959,18.43088 -5.58448,36.03562 -0.94648,25.44324 1.82448,49.16961 8.6361,73.94678 14.52923,52.84983 44.56471,97.20928 89.03544,131.4966 9.59616,7.39871 37.74714,23.6846 49.33845,28.5433 48.32416,20.2557 98.03786,24.65286 149.89906,13.25854 23.37236,-5.13511 52.15484,-17.08303 74.07368,-30.74878 21.21016,-13.22386 44.06648,-33.66078 60.42291,-54.02675 9.2974,-11.57656 24.42824,-36.24895 29.71785,-48.45782 21.59688,-49.8481 27.34263,-95.35783 18.40312,-145.76314 -6.35613,-35.83922 -19.39025,-67.32246 -40.554,-97.95615 -9.33624,-13.51383 -27.18955,-33.41822 -38.9893,-43.46856 -5.10877,-4.35135 -10.04993,-8.56846 -10.98036,-9.37135 -1.42151,-1.22664 3.34112,-2.76771 29.81948,-9.64885 17.33114,-4.50399 36.61289,-9.42856 42.84834,-10.9435 l 11.33716,-2.75443 -2.2769,-2.9384 c -1.2523,-1.61612 -6.91518,-8.40467 -12.58417,-15.08569 -21.18929,-24.97189 -33.42649,-39.99361 -31.90342,-39.16284 0.86428,0.47139 5.11921,3.45163 9.45543,6.62272 38.78788,28.36558 70.60137,64.14178 94.15304,105.88088 23.73441,42.0628 38.70882,92.49595 41.72169,140.51631 0.78252,12.47143 0.74883,37.31259 -0.0602,44.42122 -0.30522,2.68167 -0.88095,8.58465 -1.27947,13.11771 -0.93404,10.62421 -6.25873,40.48605 -9.05393,50.77568 -5.88306,21.65675 -17.61607,50.66673 -29.34202,72.54867 -22.91374,42.75935 -57.1591,81.60725 -97.12723,110.18089 -49.97316,35.72645 -110.6533,57.10314 -172.0679,60.61695 -59.92035,3.42831 -114.42467,-7.9372 -170.514,-35.55644 -14.75415,-7.26516 -13.90185,-6.77004 -29.3349,-17.04125 z M 170.91186,210.29401 c 0.22881,-0.39631 6.77727,-6.88975 14.55214,-14.42987 68.96911,-66.88682 157.33734,-100.534626 250.2991,-95.30593 15.69802,0.88295 13.07672,3.99941 22.36399,-26.588541 4.4298,-14.589752 8.61881,-28.111648 9.3089,-30.048654 l 1.25472,-3.521837 3.17247,4.068478 c 1.74486,2.237672 11.94243,14.078493 22.66125,26.312942 23.24692,26.533977 47.95248,55.191832 65.3521,75.806852 6.97671,8.26598 17.52673,20.5928 23.4445,27.39293 5.91776,6.80013 11.93604,13.92617 13.37395,15.83564 l 2.61437,3.47178 -91.03962,24.08646 c -50.07178,13.24756 -91.51504,23.81198 -92.09612,23.4765 -0.5929,-0.34231 -0.0462,-4.46024 1.24582,-9.38436 2.3739,-9.04726 9.25364,-39.91952 9.22462,-41.39472 -0.0218,-1.10975 -17.05331,-0.885 -32.27959,0.42598 -41.39471,3.56405 -78.37434,16.5095 -112.93074,39.53362 -7.40474,4.9336 -17.11261,12.18924 -21.57304,16.12364 -4.46042,3.93439 -8.50583,6.92483 -8.98978,6.64542 -0.48396,-0.27941 -2.08056,-7.82631 -3.548,-16.77087 -2.79921,-17.06221 -9.17176,-52.64132 -10.87064,-60.69279 -0.64292,-3.04698 -1.46037,-4.58294 -2.31078,-4.3419 -0.72376,0.20515 -15.17737,9.38748 -32.11915,20.40519 -16.94177,11.0177 -30.96596,19.93824 -31.16486,19.8234 -0.1989,-0.11483 -0.17442,-0.53305 0.0544,-0.92936 z"
       id="path1"
       sodipodi:nodetypes="ssssscssssssssssssssscsssssssssscsssssssssssssssssssscssssscssssssssssssss"
       inkscape:transform-center-x="37.061538"
       inkscape:transform-center-y="-32.943589" /><path
       style="fill:#ff4400;stroke-width:1.17355;fill-opacity:0.44166967"
       d="m 494.45285,214.38052 -37.38772,10.53149 -13.12597,-2.96659 c -34.60829,-7.82181 -67.81542,-6.3583 -101.20077,4.46006 -7.34133,2.37892 -17.2489,6.80988 -28.59686,12.78937 l -17.36374,9.14934 9.05358,-36.03627 9.05359,-36.03626 -42.03171,-13.95271 c -23.11746,-7.67399 -42.281,-14.38446 -42.58566,-14.91214 -0.86514,-1.49847 45.62066,-26.42975 58.25103,-31.24124 70.08729,-26.699321 144.85494,-28.281299 212.77343,-4.50202 l 13.84741,4.84819 8.92879,43.45999 c 4.91085,23.90302 8.66859,43.55389 8.35056,43.66864 -0.31802,0.11479 -17.40271,4.94783 -37.96596,10.74015 z"
       id="path9" /><path
       style="fill:#ff4400;stroke-width:1.17355;fill-opacity:0.44"
       d="m 215.25812,413.64149 c -0.65235,-0.55499 -12.553,-12.13036 -26.4459,-25.72303 -13.89289,-13.59267 -25.50293,-24.78079 -25.80006,-24.8625 -0.29713,-0.0817 -15.32038,13.03003 -33.38501,29.13721 -18.06464,16.1072 -33.264149,29.17344 -33.776731,29.0361 -2.24789,-0.60232 -1.550203,-35.40411 1.165176,-58.12025 2.625999,-21.96848 12.981535,-60.65867 21.597215,-80.69112 15.0217,-34.92727 34.83163,-65.37986 59.73343,-91.82458 6.87356,-7.29942 23.7595,-22.94715 30.34475,-28.11959 l 3.87654,-3.04486 39.96762,13.1695 c 21.98219,7.24323 40.66225,13.54575 41.51122,14.0056 1.04514,0.56611 -1.70361,13.50225 -8.51211,40.05975 l -10.05571,39.22367 -10.44793,11.69286 c -17.44718,19.5261 -29.03562,38.9767 -37.88812,63.59324 -6.88107,19.13451 -11.01999,46.06828 -10.03499,65.30234 0.40242,7.85842 0.14361,8.86122 -1.84939,7.16566 z"
       id="path8" /><path
       style="fill:#ff4400;stroke-width:1.17355;fill-opacity:0.44"
       d="m 609.84601,390.47968 -27.26591,-26.57013 -3.85183,-12.71673 c -6.00205,-19.81563 -10.91731,-30.64988 -21.69152,-47.81261 -17.42278,-27.75348 -39.23474,-48.55522 -66.70966,-63.62006 -3.88729,-2.13146 -7.2493,-4.18974 -7.47112,-4.57395 -0.22183,-0.38422 14.6422,-4.92845 33.03117,-10.09828 18.38898,-5.16984 34.00102,-9.72678 34.69341,-10.12653 0.75216,-0.43426 -2.38486,-18.53273 -7.7932,-44.9615 -4.97865,-24.32907 -8.85228,-44.35004 -8.60807,-44.49103 0.24423,-0.14101 4.21922,1.68012 8.83334,4.04694 79.96311,41.01724 139.2385,119.0127 158.22797,208.1988 1.93516,9.08875 3.47375,17.36549 3.41909,18.39277 -0.091,1.7101 -60.27658,56.55998 -65.45658,59.65364 -1.88664,1.12724 -4.75487,-1.34689 -29.35709,-25.32133 z"
       id="path7" /><path
       style="fill:#ff4400;stroke-width:1.17355;fill-opacity:0.44"
       d="m 250.66532,668.6507 c -37.37743,-21.04826 -67.30928,-47.34257 -94.96229,-83.42189 -12.67444,-16.53653 -34.0225,-55.31559 -41.28402,-74.99305 -6.26883,-16.98746 -10.75452,-32.65735 -13.92677,-48.65063 -4.204722,-21.19874 -7.707145,-15.32902 28.32771,-47.47446 17.21565,-15.35747 31.99236,-28.16896 32.83715,-28.46995 0.99518,-0.35457 11.69686,9.33088 30.3953,27.50889 l 28.85933,28.05615 3.21085,11.1618 c 13.11081,45.57659 45.06509,86.24943 85.79774,109.20711 5.06244,2.85329 8.88071,5.36764 8.48508,5.58752 -0.39777,0.21615 -16.17373,4.78181 -35.06237,10.13779 -18.88863,5.35599 -34.44696,10.22954 -34.57403,10.83017 -0.12712,0.60053 3.78402,20.57382 8.6914,44.38507 4.9074,23.81123 8.58848,43.48602 8.18015,43.72177 -0.4083,0.23574 -7.14715,-3.17809 -14.97523,-7.58629 z"
       id="path6" /><path
       style="fill:#ff4400;stroke-width:1.17355;fill-opacity:1"
       d="m 547.25945,629.29456 -42.70936,-14.17208 9.46601,-37.64135 9.46594,-37.64145 7.53418,-7.27646 c 34.1163,-32.94919 55.08161,-83.29181 54.81644,-131.62735 -0.0295,-5.37843 0.20045,-9.93216 0.51093,-10.11941 0.30809,-0.19139 10.82564,9.74249 23.36694,22.06593 28.99558,28.49187 27.06498,26.7646 28.58946,25.57874 0.7181,-0.55865 16.11658,-14.24017 34.21873,-30.40358 18.10221,-16.1633 33.39159,-29.25958 33.97633,-29.10298 1.21137,0.32466 1.90186,16.80654 1.38864,33.14512 -0.67785,21.58014 -4.25209,44.48127 -10.70712,68.60333 -16.41605,61.34617 -48.11492,112.06623 -95.96289,153.54656 -5.17537,4.48673 -9.82271,8.39597 -10.32735,8.68732 -0.50464,0.29136 -20.13673,-5.8477 -43.62688,-13.64234 z"
       id="path5" /><path
       style="fill:#ff4400;stroke-width:1.17355;fill-opacity:0.44"
       d="m 538.50782,675.72062 c -63.40294,32.44597 -139.20394,40.96386 -209.6769,23.56157 -15.45835,-3.8172 -38.7194,-11.26833 -43.07556,-13.79818 -0.93673,-0.54406 -16.0089,-69.93333 -18.58801,-85.57537 -0.16725,-1.01421 11.23268,-4.69647 37.57987,-12.13874 l 37.81985,-10.68301 13.09549,3.08723 c 47.40789,11.1763 89.80067,5.99369 132.29167,-16.17277 l 14.75443,-7.69702 -8.59672,34.09782 c -4.72821,18.75382 -8.41936,34.45346 -8.20262,34.88797 0.21676,0.43464 19.9858,7.26515 43.9312,15.17908 23.94535,7.91383 43.47575,14.54456 43.40088,14.73494 -0.49691,1.26323 -22.44818,14.22937 -34.73358,20.51648 z"
       id="path3" /></g></svg>
